<svg width="15" height="16" viewBox="0 0 15 16" fill="none" xmlns="http://www.w3.org/2000/svg">
<path d="M3.18 15.88C3.18 15.7 3.16 15.62 3.08 15.62L2.62 15.84C2.62 15.74 2.56 15.68 2.46 15.64L2.3 15.62C2.16 15.62 2.1 15.64 1.9 15.76C1.84 15.64 1.76 15.5 1.7 15.38C1.18 14.38 0.64 12.88 0.4 12.22C0.28 11.88 0.16 11.18 0.0200001 10.12C0.18 10.22 0.3 10.26 0.36 10.26C0.44 10.26 0.54 10.12 0.62 9.84C0.66 9.9 0.74 9.92 0.84 9.92C0.9 9.92 0.98 9.9 1.02 9.84L1.34 9.36L1.7 9.48H1.72C1.76 9.48 1.82 9.42 1.92 9.36C2.02 9.3 2.1 9.26 2.16 9.26L2.22 9.28C2.54 9.44 2.76 9.72 2.86 10.16C3.1 11.18 3.32 11.68 3.58 11.68C3.8 11.68 4.1 11.42 4.42 10.92C4.74 10.42 5.06 9.74 5.42 8.92C5.44 9.08 5.46 9.16 5.5 9.16C5.62 9.16 5.92 8.46 6.66 7.28C7.76 5.5 10.48 2.08 11.18 1.6C11.7 1.24 12.1 0.899999 12.38 0.599999C12.34 0.799999 12.3 0.94 12.3 0.999999C12.3 1.06 12.34 1.08 12.38 1.08L12.94 0.799999V0.879999C12.94 0.979999 12.96 1.04 13.02 1.04C13.1 1.04 13.42 0.719999 13.46 0.599999L13.42 0.879999L14.1 0.48L13.94 0.84C14.14 0.699999 14.3 0.619999 14.4 0.619999C14.5 0.619999 14.56 0.779999 14.56 0.879999C14.56 1.04 14.42 1.26 14.2 1.54C13.96 1.86 13.36 2.48 11.56 4.54C10.78 5.42 7.32 10.12 6.66 11.24L5.42 13.34C4.88 14.24 4.54 14.82 4.36 15.04C4.18 15.26 3.96 15.48 3.7 15.68L3.52 15.58L3.36 15.68L3.18 15.88Z" fill="#0B258F"/>
</svg>
