<svg width="14" height="14" viewBox="0 0 14 14" fill="none" xmlns="http://www.w3.org/2000/svg">
<path fill-rule="evenodd" clip-rule="evenodd" d="M7.20476 8.9642L11.6029 13.3623C11.8363 13.5957 12.1528 13.7268 12.4828 13.7268C12.8129 13.7268 13.1294 13.5957 13.3628 13.3623C13.5962 13.1289 13.7273 12.8124 13.7273 12.4824C13.7273 12.1523 13.5962 11.8358 13.3628 11.6024L8.96301 7.20429L13.362 2.80616C13.4775 2.69061 13.5691 2.55343 13.6316 2.40247C13.6941 2.2515 13.7262 2.08971 13.7262 1.92633C13.7261 1.76294 13.6939 1.60117 13.6313 1.45023C13.5688 1.2993 13.4771 1.16217 13.3616 1.04666C13.246 0.931162 13.1088 0.839551 12.9579 0.777062C12.8069 0.714573 12.6451 0.68243 12.4817 0.682468C12.3183 0.682507 12.1566 0.714726 12.0056 0.777286C11.8547 0.839846 11.7176 0.931522 11.6021 1.04708L7.20476 5.4452L2.80664 1.04708C2.69193 0.928208 2.5547 0.83337 2.40296 0.7681C2.25121 0.70283 2.08798 0.668435 1.9228 0.666922C1.75762 0.66541 1.59379 0.696809 1.44087 0.759289C1.28795 0.821768 1.14901 0.914077 1.03215 1.03083C0.915285 1.14758 0.822845 1.28644 0.760221 1.4393C0.697597 1.59215 0.666043 1.75595 0.6674 1.92114C0.668757 2.08632 0.702998 2.24958 0.768125 2.40139C0.833251 2.5532 0.92796 2.69052 1.04672 2.80533L5.44651 7.20429L1.04755 11.6032C0.92879 11.7181 0.834081 11.8554 0.768954 12.0072C0.703828 12.159 0.669587 12.3223 0.66823 12.4874C0.666873 12.6526 0.698427 12.8164 0.761051 12.9693C0.823674 13.1221 0.916114 13.261 1.03298 13.3777C1.14984 13.4945 1.28878 13.5868 1.4417 13.6493C1.59462 13.7118 1.75845 13.7432 1.92363 13.7417C2.08881 13.7401 2.25204 13.7057 2.40379 13.6405C2.55553 13.5752 2.69276 13.4804 2.80747 13.3615L7.20476 8.9642Z" fill="white"/>
</svg>
