<svg width="30" height="32" viewBox="0 0 30 32" fill="none" xmlns="http://www.w3.org/2000/svg">
<path d="M27.6666 6.50001C28.0702 6.50045 28.4583 6.65498 28.7518 6.93202C29.0452 7.20905 29.2218 7.58768 29.2455 7.99055C29.2691 8.39341 29.1381 8.79011 28.879 9.09957C28.62 9.40904 28.2526 9.60793 27.8519 9.65559L27.6666 9.66667H27.5384L26.0833 27.0833C26.0834 28.2949 25.6204 29.4607 24.7893 30.3423C23.9581 31.2238 22.8214 31.7543 21.612 31.8254L21.3333 31.8333H8.66662C6.13645 31.8333 4.06862 29.8558 3.92929 27.4792L3.92137 27.2148L2.45995 9.66667H2.33329C1.92973 9.66623 1.54157 9.5117 1.24812 9.23466C0.954673 8.95763 0.778083 8.579 0.754432 8.17613C0.730782 7.77326 0.861856 7.37657 1.12087 7.0671C1.37989 6.75764 1.7473 6.55875 2.14804 6.51109L2.33329 6.50001H27.6666ZM12.6424 14.6383C12.3106 14.4409 11.9182 14.3714 11.5388 14.443C11.1594 14.5146 10.8193 14.7224 10.5824 15.0272C10.3454 15.332 10.228 15.7129 10.2523 16.0982C10.2765 16.4835 10.4406 16.8467 10.7139 17.1194L12.7595 19.1667L10.7139 21.2139L10.5825 21.3628C10.3364 21.681 10.2207 22.081 10.2588 22.4814C10.297 22.8819 10.4861 23.2528 10.7878 23.5189C11.0896 23.7849 11.4813 23.9261 11.8833 23.9139C12.2854 23.9016 12.6678 23.7367 12.9527 23.4528L15 21.4071L17.0472 23.4528L17.196 23.5842C17.5143 23.8302 17.9142 23.946 18.3147 23.9078C18.7152 23.8697 19.0861 23.6805 19.3521 23.3788C19.6182 23.0771 19.7594 22.6854 19.7471 22.2833C19.7349 21.8812 19.57 21.4989 19.286 21.2139L17.2404 19.1667L19.286 17.1194L19.4175 16.9706C19.6635 16.6524 19.7792 16.2524 19.7411 15.8519C19.7029 15.4515 19.5138 15.0805 19.2121 14.8145C18.9103 14.5484 18.5186 14.4072 18.1166 14.4195C17.7145 14.4318 17.3321 14.5966 17.0472 14.8806L15 16.9263L12.9527 14.8806L12.8039 14.7492L12.6424 14.6383ZM18.1666 0.166672C19.0065 0.166672 19.8119 0.500302 20.4058 1.09417C20.9997 1.68803 21.3333 2.49349 21.3333 3.33334C21.3328 3.7369 21.1783 4.12506 20.9013 4.41851C20.6242 4.71195 20.2456 4.88854 19.8427 4.91219C19.4399 4.93584 19.0432 4.80477 18.7337 4.54575C18.4242 4.28674 18.2254 3.91932 18.1777 3.51859L18.1666 3.33334H11.8333L11.8222 3.51859C11.7745 3.91932 11.5757 4.28674 11.2662 4.54575C10.9567 4.80477 10.56 4.93584 10.1572 4.91219C9.7543 4.88854 9.37566 4.71195 9.09863 4.41851C8.8216 4.12506 8.66707 3.7369 8.66662 3.33334C8.66637 2.53443 8.9681 1.76494 9.51132 1.17914C10.0546 0.593334 10.7991 0.234507 11.5958 0.174589L11.8333 0.166672H18.1666Z" fill="white"/>
</svg>
