<svg width="36" height="36" viewBox="0 0 36 36" fill="none" xmlns="http://www.w3.org/2000/svg">
<path fill-rule="evenodd" clip-rule="evenodd" d="M9 6C8.20435 6 7.44129 6.31607 6.87868 6.87868C6.31607 7.44129 6 8.20435 6 9V27C6 27.7956 6.31607 28.5587 6.87868 29.1213C7.44129 29.6839 8.20435 30 9 30H18.75C19.5784 30 20.25 30.6716 20.25 31.5C20.25 32.3284 19.5784 33 18.75 33H9C7.4087 33 5.88258 32.3679 4.75736 31.2426C3.63214 30.1174 3 28.5913 3 27V9C3 7.4087 3.63214 5.88258 4.75736 4.75736C5.88258 3.63214 7.4087 3 9 3H27C28.5913 3 30.1174 3.63214 31.2426 4.75736C32.3679 5.88258 33 7.4087 33 9V18.75C33 19.5784 32.3284 20.25 31.5 20.25C30.6716 20.25 30 19.5784 30 18.75V9C30 8.20435 29.6839 7.44129 29.1213 6.87868C28.5587 6.31607 27.7956 6 27 6H9ZM21 12C21 11.1716 21.6716 10.5 22.5 10.5H22.515C23.3434 10.5 24.015 11.1716 24.015 12C24.015 12.8284 23.3434 13.5 22.515 13.5H22.5C21.6716 13.5 21 12.8284 21 12Z" fill="#182A74"/>
<path fill-rule="evenodd" clip-rule="evenodd" d="M13.0495 17.5718L5.56066 25.0607C4.97487 25.6464 4.02513 25.6464 3.43934 25.0607C2.85355 24.4749 2.85355 23.5251 3.43934 22.9393L10.9393 15.4393L10.9599 15.4192C11.8811 14.5327 13.0159 13.9954 14.25 13.9954C15.4841 13.9954 16.6189 14.5327 17.5401 15.4192L17.5607 15.4393L22.8107 20.6893C23.3964 21.2751 23.3964 22.2249 22.8107 22.8107C22.2249 23.3964 21.2751 23.3964 20.6893 22.8107L15.4505 17.5718C14.9836 17.1261 14.5678 16.9954 14.25 16.9954C13.9322 16.9954 13.5164 17.1261 13.0495 17.5718Z" fill="#182A74"/>
<path fill-rule="evenodd" clip-rule="evenodd" d="M23.5494 20.572C24.2076 19.9438 24.78 19.9059 25.2533 20.0994C26.0201 20.413 26.8959 20.0455 27.2094 19.2787C27.523 18.5119 27.1555 17.6361 26.3887 17.3226C24.6413 16.6081 22.8349 17.0968 21.4602 18.4189L21.4393 18.4393L19.9393 19.9393C19.3536 20.5251 19.3536 21.4749 19.9393 22.0607C20.5251 22.6465 21.4749 22.6465 22.0607 22.0607L23.5494 20.572ZM28.5 22.5C28.8978 22.5 29.2794 22.658 29.5607 22.9393L34.0607 27.4393C34.6464 28.0251 34.6464 28.9749 34.0607 29.5607C33.4749 30.1465 32.5251 30.1465 31.9393 29.5607L30 27.6213V33C30 33.8284 29.3284 34.5 28.5 34.5C27.6716 34.5 27 33.8284 27 33V27.6213L25.0607 29.5607C24.4749 30.1465 23.5251 30.1465 22.9393 29.5607C22.3536 28.9749 22.3536 28.0251 22.9393 27.4393L27.4393 22.9393C27.7206 22.658 28.1022 22.5 28.5 22.5Z" fill="#182A74"/>
</svg>
